<svg xmlns="http://www.w3.org/2000/svg" width="157" height="37" viewBox="0 0 157 37" fill="none">
  <g clip-path="url(#clip0_135_177)">
    <path fill-rule="evenodd" clip-rule="evenodd"
      d="M19.0865 2.16233C19.1835 3.03425 19.0995 3.98833 19.1126 4.64368C19.1537 6.64893 19.1817 8.65231 19.1966 10.6576C19.2078 12.1979 19.1798 13.7382 19.1593 15.2786C19.1406 16.7013 19.0566 18.1576 18.6049 19.5187C18.3511 20.2861 17.905 20.9583 17.1435 21.3055L14.6836 19.1173C14.6705 19.1061 14.9542 18.4937 14.971 18.4526C15.1856 17.885 15.3499 17.2988 15.4563 16.7013C15.9807 13.742 14.7694 10.6949 11.6992 9.82857C10.0735 9.37114 8.24627 9.57652 6.78112 10.4242C5.20772 11.3334 4.03188 12.9279 3.65486 14.7091C3.15092 17.0971 4.1028 19.6177 6.10547 21.0255C7.42877 21.9572 9.2896 22.1924 10.8369 21.8209C11.52 21.6566 12.1714 21.3989 12.7705 21.0311L15.7773 24.0389C15.7773 24.0389 16.5519 25.1872 15.5048 26.2272C15.5048 26.2272 14.3103 27.4314 13.0448 25.9546L11.9511 24.8605C11.8933 24.8026 11.1822 25.0453 11.0963 25.064C10.7043 25.1443 10.3049 25.2003 9.90552 25.2301C6.84271 25.4729 3.72205 24.2443 1.85376 21.7592C1.03626 20.6726 0.453939 19.403 0.185173 18.0699C0.00226369 17.1681 -0.031332 16.2159 0.0246608 15.2973C0.216903 12.1792 1.80336 9.45889 4.43876 7.77291C5.79378 6.90472 7.35971 6.31285 8.97044 6.25684C10.3273 6.21016 11.6898 6.43795 12.9665 6.90098C13.8605 7.22399 14.7097 7.66089 15.5029 8.18367V1.62087C15.5029 0.621981 16.4212 -0.0949796 17.388 0.0114442C18.5751 0.140273 18.9689 1.09249 19.0865 2.16419"
      fill="white" />
    <path
      d="M9.50252 11.8188C11.2943 11.3726 12.9517 12.5395 13.2466 14.3356C13.3492 14.9592 14.2974 14.6941 14.1947 14.0742C13.8121 11.7404 11.5089 10.3046 9.23936 10.8703C8.6253 11.0234 8.88473 11.9738 9.50066 11.8207"
      fill="white" />
    <path d="M28.5341 6.92871H25.9043V20.7489H28.5341V6.92871Z" fill="white" />
    <path
      d="M36.882 10.2207C35.3385 10.2207 34.4948 10.7136 33.7968 11.5351V10.5493H31.167V20.7492H33.7968V15.484C33.7968 13.6337 34.9073 12.8514 36.1018 12.8514C37.4587 12.8514 38.0765 13.5721 38.0765 15.1554V20.7492H40.7063V14.8249C40.7063 11.7405 39.2281 10.2207 36.8839 10.2207H36.882Z"
      fill="white" />
    <path
      d="M47.4497 10.2204C44.6314 10.2204 42.3525 12.6457 42.3525 15.6498C42.3525 18.654 44.6333 21.0793 47.4497 21.0793C48.6835 21.0793 49.7548 20.607 50.576 19.6622V20.7507H53.2058V6.27148H50.576V11.6394C49.7529 10.6946 48.6835 10.2222 47.4497 10.2222V10.2204ZM47.7782 18.4486C46.2347 18.4486 44.9805 17.1939 44.9805 15.6498C44.9805 14.1058 46.2347 12.8511 47.7782 12.8511C49.3218 12.8511 50.576 14.1058 50.576 15.6498C50.576 17.1939 49.3218 18.4486 47.7782 18.4486V18.4486Z"
      fill="white" />
    <path
      d="M56.9912 9.23096C57.9972 9.23096 58.7998 8.42998 58.7998 7.42175C58.7998 6.41353 57.9991 5.61255 56.9912 5.61255C55.9833 5.61255 55.1826 6.41353 55.1826 7.42175C55.1826 8.42998 55.9833 9.23096 56.9912 9.23096ZM55.6772 20.749H58.307V10.5491H55.6772V20.749Z"
      fill="white" />
    <path
      d="M68.3426 10.5493V11.6378C67.5195 10.6931 66.4501 10.2207 65.2164 10.2207C62.3981 10.2207 60.1191 12.646 60.1191 15.6502C60.1191 18.6543 62.3999 21.0797 65.2164 21.0797C66.4501 21.0797 67.5195 20.6073 68.3426 19.6625V20.7511H70.9724V10.5493H68.3426ZM65.5448 18.4471C64.0013 18.4471 62.7471 17.1924 62.7471 15.6483C62.7471 14.1042 64.0013 12.8496 65.5448 12.8496C67.0884 12.8496 68.3426 14.1042 68.3426 15.6483C68.3426 17.1924 67.0884 18.4471 65.5448 18.4471Z"
      fill="white" />
    <path
      d="M78.1904 6.92871H73.6064V20.7489H78.1904C82.8191 20.7489 85.4471 17.6663 85.4471 13.8388C85.4471 10.0113 82.9404 6.92871 78.1904 6.92871V6.92871ZM78.6626 18.1181H76.2362V9.55943H78.6626C81.13 9.55943 82.8173 11.4732 82.8173 13.8388C82.8173 16.2044 81.13 18.1181 78.6626 18.1181V18.1181Z"
      fill="white" />
    <path
      d="M94.9901 10.5493V11.6378C94.167 10.6931 93.0975 10.2207 91.8638 10.2207C89.0455 10.2207 86.7666 12.646 86.7666 15.6502C86.7666 18.6543 89.0474 21.0797 91.8638 21.0797C93.0975 21.0797 94.167 20.6073 94.9901 19.6625V20.7511H97.6199V10.5493H94.9901ZM92.1923 18.4471C90.6488 18.4471 89.3945 17.1924 89.3945 15.6483C89.3945 14.1042 90.6488 12.8496 92.1923 12.8496C93.7358 12.8496 94.9901 14.1042 94.9901 15.6483C94.9901 17.1924 93.7358 18.4471 92.1923 18.4471Z"
      fill="white" />
    <path
      d="M100.912 17.8512C100.912 19.7426 101.713 21.0794 103.583 21.0794C104.447 21.0794 105.002 20.9562 105.515 20.7508V18.4487C104.22 18.7568 103.54 18.6952 103.54 17.1324V12.8531H105.515V10.5509H103.54V6.93066H100.911V10.5509H99.5947V12.8531H100.911V17.8531L100.912 17.8512Z"
      fill="white" />
    <path
      d="M115.387 10.5493V11.6378C114.563 10.6931 113.494 10.2207 112.26 10.2207C109.442 10.2207 107.163 12.646 107.163 15.6502C107.163 18.6543 109.444 21.0797 112.26 21.0797C113.494 21.0797 114.563 20.6073 115.387 19.6625V20.7511H118.016V10.5493H115.387ZM112.589 18.4471C111.045 18.4471 109.791 17.1924 109.791 15.6483C109.791 14.1042 111.045 12.8496 112.589 12.8496C114.132 12.8496 115.387 14.1042 115.387 15.6483C115.387 17.1924 114.132 18.4471 112.589 18.4471Z"
      fill="white" />
    <path
      d="M129.205 6.92871V12.5225H123.281V6.92871H120.651V20.7489H123.281V15.1551H129.205V20.7489H131.835V6.92871H129.205Z"
      fill="white" />
    <path
      d="M137.96 21.0773C139.504 21.0773 140.347 20.5844 141.047 19.7629V20.7487H143.677V10.5488H141.047V15.814C141.047 17.6643 139.937 18.4466 138.742 18.4466C137.385 18.4466 136.767 17.7259 136.767 16.1426V10.5488H134.138V16.4731C134.138 19.5575 135.616 21.0773 137.96 21.0773V21.0773Z"
      fill="white" />
    <path
      d="M151.903 10.2203C150.669 10.2203 149.599 10.6927 148.776 11.6374V6.26953H146.146V20.7488H148.776V19.6603C149.599 20.605 150.669 21.0774 151.903 21.0774C154.721 21.0774 157 18.652 157 15.6479C157 12.6438 154.719 10.2184 151.903 10.2184V10.2203ZM151.574 18.4485C150.031 18.4485 148.776 17.1938 148.776 15.6498C148.776 14.1057 150.031 12.851 151.574 12.851C153.118 12.851 154.372 14.1057 154.372 15.6498C154.372 17.1938 153.118 18.4485 151.574 18.4485Z"
      fill="white" />
    <path
      d="M27.7502 27.6516H25.9043V34.3638H27.7502C29.9376 34.3638 31.1751 32.8664 31.1751 31.0086C31.1751 29.1509 29.988 27.6516 27.7502 27.6516V27.6516ZM27.8099 33.7252H26.5407V28.2902H27.8099C29.499 28.2902 30.5368 29.4291 30.5368 31.0086C30.5368 32.5882 29.4972 33.7271 27.8099 33.7271V33.7252Z"
      fill="white" />
    <path
      d="M36.489 29.5686V30.4162C36.0803 29.858 35.4307 29.4883 34.6506 29.4883C33.2825 29.4883 32.1738 30.5955 32.1738 31.9659C32.1738 33.3363 33.2806 34.4435 34.6506 34.4435C35.4307 34.4435 36.0784 34.0738 36.489 33.5156V34.3632H37.1273V29.5686H36.489ZM34.6506 33.805C33.6315 33.805 32.8121 32.9853 32.8121 31.9659C32.8121 30.9465 33.6315 30.1268 34.6506 30.1268C35.6696 30.1268 36.489 30.9465 36.489 31.9659C36.489 32.9853 35.6696 33.805 34.6506 33.805Z"
      fill="white" />
    <path
      d="M39.0845 32.7932C39.0845 33.7118 39.2245 34.4419 40.1316 34.4419C40.4004 34.4419 40.5515 34.3915 40.6803 34.341V33.6894C40.4601 33.7996 40.1409 33.8388 39.9113 33.6689C39.721 33.5289 39.721 33.1797 39.721 32.8399V30.2055H40.6803V29.5669H39.721V27.6494H39.0827V29.5669H38.4443V30.2055H39.0827V32.7914L39.0845 32.7932Z"
      fill="white" />
    <path
      d="M46.155 29.5686V30.4162C45.7463 29.858 45.0968 29.4883 44.3166 29.4883C42.9485 29.4883 41.8398 30.5955 41.8398 31.9659C41.8398 33.3363 42.9466 34.4435 44.3166 34.4435C45.0949 34.4435 45.7444 34.0738 46.155 33.5156V34.3632H46.7933V29.5686H46.155ZM44.3166 33.805C43.2975 33.805 42.4782 32.9853 42.4782 31.9659C42.4782 30.9465 43.2975 30.1268 44.3166 30.1268C45.3357 30.1268 46.155 30.9465 46.155 31.9659C46.155 32.9853 45.3357 33.805 44.3166 33.805Z"
      fill="white" />
    <path d="M52.305 26.6914H51.8271V36.9212H52.305V26.6914Z" fill="white" />
    <path
      d="M62.3723 34.364H63.0908L59.8955 27.4932L56.7002 34.364H57.4188L58.0776 32.9264H61.7115L62.3704 34.364H62.3723ZM58.3688 32.2878L59.8955 28.9308L61.4223 32.2878H58.3669H58.3688Z"
      fill="white" />
    <path
      d="M66.3062 29.4883C65.6361 29.4883 64.9773 29.9065 64.7272 30.3061V29.5686H64.0889V34.3632H64.7272V31.5663C64.7272 30.6664 65.5857 30.1268 66.3248 30.1268C67.3047 30.1268 67.6033 30.756 67.6033 31.5253V34.3632H68.2417V31.6858C68.2417 30.2669 67.6836 29.4901 66.3043 29.4901L66.3062 29.4883Z"
      fill="white" />
    <path
      d="M73.7185 29.5686V30.4162C73.3097 29.858 72.6602 29.4883 71.8801 29.4883C70.512 29.4883 69.4033 30.5955 69.4033 31.9659C69.4033 33.3363 70.5101 34.4435 71.8801 34.4435C72.6584 34.4435 73.3079 34.0738 73.7185 33.5156V34.3632H74.3568V29.5686H73.7185ZM71.8801 33.805C70.861 33.805 70.0416 32.9853 70.0416 31.9659C70.0416 30.9465 70.861 30.1268 71.8801 30.1268C72.8991 30.1268 73.7185 30.9465 73.7185 31.9659C73.7185 32.9853 72.8991 33.805 71.8801 33.805Z"
      fill="white" />
    <path d="M76.5534 27.3301H75.915V34.3634H76.5534V27.3301Z" fill="white" />
    <path
      d="M81.3557 29.5693L79.7879 33.2456L78.2201 29.5693H77.4717L79.409 34.0634L78.1305 36.92H78.8603L82.1042 29.5693H81.3557V29.5693Z"
      fill="white" />
    <path
      d="M83.4234 32.7932C83.4234 33.7118 83.5634 34.4419 84.4704 34.4419C84.7392 34.4419 84.8904 34.3915 85.0192 34.341V33.6894C84.7989 33.7996 84.4798 33.8388 84.2502 33.6689C84.0598 33.5289 84.0598 33.1797 84.0598 32.8399V30.2055H85.0192V29.5669H84.0598V27.6494H83.4215V29.5669H82.7832V30.2055H83.4215V32.7914L83.4234 32.7932Z"
      fill="white" />
    <path
      d="M86.8188 28.7681C87.1286 28.7681 87.3769 28.5179 87.3769 28.2099C87.3769 27.9018 87.1268 27.6516 86.8188 27.6516C86.5108 27.6516 86.2607 27.9018 86.2607 28.2099C86.2607 28.5179 86.5108 28.7681 86.8188 28.7681ZM86.4996 34.3619H87.138V29.5672H86.4996V34.3619Z"
      fill="white" />
    <path
      d="M92.181 33.3252C91.8413 33.624 91.3822 33.8051 90.8726 33.8051C89.6651 33.8051 88.9353 32.9854 88.9353 31.966C88.9353 30.9466 89.6837 30.1269 90.8726 30.1269C91.4326 30.1269 91.8506 30.2875 92.1717 30.5675L92.4516 29.9887C92.0317 29.6489 91.5128 29.4902 90.8838 29.4902C89.2656 29.4902 88.2988 30.5974 88.2988 31.9679C88.2988 33.3383 89.247 34.4455 90.8838 34.4455C91.4624 34.4455 92.0727 34.255 92.4516 33.9078L92.1829 33.329L92.181 33.3252Z"
      fill="white" />
    <path
      d="M95.4362 31.5663C94.9174 31.4562 94.1671 31.2863 94.1671 30.827C94.1671 30.1772 94.867 30.1175 95.3168 30.1268C95.8469 30.1362 96.446 30.3677 96.6457 30.5264L96.8846 29.9476C96.3265 29.5984 95.7069 29.4883 95.3075 29.4883C94.2287 29.4883 93.5306 30.0167 93.5306 30.8158C93.5306 31.5047 93.8591 31.9248 95.3075 32.2049C95.8375 32.315 96.4068 32.5354 96.4068 33.0544C96.4068 33.5735 95.817 33.8143 95.2571 33.8031C94.6766 33.7938 93.9991 33.5623 93.6501 33.1832L93.3701 33.762C93.5698 33.9711 94.3071 34.4398 95.2776 34.4398C96.4273 34.4398 97.0451 33.7508 97.0451 33.0227C97.0451 32.3524 96.7259 31.8333 95.4381 31.5645L95.4362 31.5663Z"
      fill="white" />
    <path d="M102.238 26.6914H101.76V36.9212H102.238V26.6914Z" fill="white" />
    <path d="M107.909 27.6514H107.271V34.3635H107.909V27.6514Z" fill="white" />
    <path
      d="M111.763 29.4883C111.093 29.4883 110.434 29.9065 110.184 30.3061V29.5686H109.546V34.3632H110.184V31.5663C110.184 30.6664 111.043 30.1268 111.782 30.1268C112.762 30.1268 113.06 30.756 113.06 31.5253V34.3632H113.699V31.6858C113.699 30.2669 113.141 29.4901 111.761 29.4901L111.763 29.4883Z"
      fill="white" />
    <path
      d="M115.419 32.7932C115.419 33.7118 115.559 34.4419 116.467 34.4419C116.737 34.4419 116.886 34.3915 117.015 34.341V33.6894C116.795 33.7996 116.476 33.8388 116.246 33.6689C116.056 33.5289 116.056 33.1797 116.056 32.8399V30.2055H117.015V29.5669H116.056V27.6494H115.418V29.5669H114.779V30.2055H115.418V32.7914L115.419 32.7932Z"
      fill="white" />
    <path
      d="M122.728 31.9454C122.728 30.4069 121.75 29.4883 120.483 29.4883C119.014 29.4883 118.098 30.5768 118.098 31.9659C118.098 33.355 119.035 34.4435 120.614 34.4435C121.653 34.4435 122.282 33.9749 122.411 33.8647L122.172 33.2859C121.773 33.5959 121.254 33.805 120.634 33.805C119.615 33.805 118.855 33.1944 118.757 32.2852H122.7C122.721 32.175 122.73 32.0462 122.73 31.9454H122.728ZM118.755 31.6466C118.785 30.967 119.315 30.1268 120.453 30.1268C121.592 30.1268 122.051 30.9875 122.081 31.6466H118.755Z"
      fill="white" />
    <path d="M124.526 27.3301H123.888V34.3634H124.526V27.3301Z" fill="white" />
    <path d="M126.723 27.3301H126.085V34.3634H126.723V27.3301Z" fill="white" />
    <path
      d="M128.6 28.7679C128.91 28.7679 129.158 28.5177 129.158 28.2096C129.158 27.9016 128.908 27.6514 128.6 27.6514C128.292 27.6514 128.042 27.9016 128.042 28.2096C128.042 28.5177 128.292 28.7679 128.6 28.7679ZM128.281 34.3617H128.919V29.567H128.281V34.3617Z"
      fill="white" />
    <path
      d="M134.474 29.5686V30.4162C134.066 29.858 133.416 29.4883 132.636 29.4883C131.268 29.4883 130.159 30.5955 130.159 31.9659C130.159 33.3363 131.266 34.4435 132.636 34.4435C133.414 34.4435 134.064 34.0738 134.474 33.5156V34.2045C134.474 35.7038 133.715 36.3629 132.597 36.3629C131.708 36.3629 131.068 35.9932 130.639 35.6422L130.32 36.2023C130.529 36.3722 131.357 36.9996 132.597 36.9996C134.165 36.9996 135.113 36.0623 135.113 34.0626V29.5686H134.474V29.5686ZM132.636 33.805C131.617 33.805 130.797 32.9853 130.797 31.9659C130.797 30.9465 131.617 30.1268 132.636 30.1268C133.655 30.1268 134.474 30.9465 134.474 31.9659C134.474 32.9853 133.655 33.805 132.636 33.805Z"
      fill="white" />
    <path
      d="M140.904 31.9454C140.904 30.4069 139.926 29.4883 138.657 29.4883C137.188 29.4883 136.271 30.5768 136.271 31.9659C136.271 33.355 137.208 34.4435 138.787 34.4435C139.827 34.4435 140.456 33.9749 140.585 33.8647L140.346 33.2859C139.946 33.5959 139.428 33.805 138.808 33.805C137.789 33.805 137.029 33.1944 136.93 32.2852H140.874C140.895 32.175 140.904 32.0462 140.904 31.9454V31.9454ZM136.93 31.6466C136.96 30.967 137.49 30.1268 138.629 30.1268C139.767 30.1268 140.226 30.9875 140.256 31.6466H136.93Z"
      fill="white" />
    <path
      d="M144.279 29.4883C143.609 29.4883 142.95 29.9065 142.7 30.3061V29.5686H142.062V34.3632H142.7V31.5663C142.7 30.6664 143.558 30.1268 144.297 30.1268C145.277 30.1268 145.576 30.756 145.576 31.5253V34.3632H146.214V31.6858C146.214 30.2669 145.656 29.4901 144.277 29.4901L144.279 29.4883Z"
      fill="white" />
    <path
      d="M151.259 33.3252C150.919 33.624 150.46 33.8051 149.951 33.8051C148.743 33.8051 148.013 32.9854 148.013 31.966C148.013 30.9466 148.762 30.1269 149.951 30.1269C150.511 30.1269 150.929 30.2875 151.25 30.5675L151.53 29.9887C151.11 29.6489 150.591 29.4902 149.962 29.4902C148.344 29.4902 147.377 30.5974 147.377 31.9679C147.377 33.3383 148.325 34.4455 149.962 34.4455C150.541 34.4455 151.151 34.255 151.53 33.9078L151.259 33.329V33.3252Z"
      fill="white" />
    <path
      d="M157 31.9454C157 30.4069 156.022 29.4883 154.752 29.4883C153.284 29.4883 152.367 30.5768 152.367 31.9659C152.367 33.355 153.304 34.4435 154.883 34.4435C155.923 34.4435 156.552 33.9749 156.68 33.8647L156.442 33.2859C156.042 33.5959 155.523 33.805 154.904 33.805C153.885 33.805 153.125 33.1944 153.026 32.2852H156.97C156.99 32.175 157 32.0462 157 31.9454V31.9454ZM153.026 31.6466C153.056 30.967 153.586 30.1268 154.724 30.1268C155.863 30.1268 156.322 30.9875 156.352 31.6466H153.026Z"
      fill="white" />
  </g>
  <defs>
    <clipPath id="clip0_135_177">
      <rect width="157" height="37" fill="white" />
    </clipPath>
  </defs>
</svg>